<svg xmlns="http://www.w3.org/2000/svg" width="21.911" height="17.042" viewBox="0 0 21.911 17.042">
  <path id="Icon_awesome-shopping-basket" data-name="Icon awesome-shopping-basket" d="M21.911,9.249v.609a.913.913,0,0,1-.913.913h-.3L19.7,17.724a1.826,1.826,0,0,1-1.808,1.568H4.018a1.826,1.826,0,0,1-1.808-1.568l-.993-6.953h-.3A.913.913,0,0,1,0,9.858V9.249a.913.913,0,0,1,.913-.913H3.475L7.537,2.751A1.217,1.217,0,0,1,9.505,4.183L6.485,8.336h8.941l-3.02-4.153a1.217,1.217,0,0,1,1.969-1.432l4.062,5.585H21A.913.913,0,0,1,21.911,9.249Zm-10.043,6.7v-4.26a.913.913,0,0,0-1.826,0v4.26a.913.913,0,0,0,1.826,0Zm4.26,0v-4.26a.913.913,0,1,0-1.826,0v4.26a.913.913,0,1,0,1.826,0Zm-8.521,0v-4.26a.913.913,0,0,0-1.826,0v4.26a.913.913,0,0,0,1.826,0Z" transform="translate(0 -2.25)" fill="#552a58"/>
</svg>
