<svg id="Groupe_159" data-name="Groupe 159" xmlns="http://www.w3.org/2000/svg" width="139.058" height="66.565" viewBox="0 0 139.058 66.565">
  <path id="Tracé_115" data-name="Tracé 115" d="M903.419,583.573a11.738,11.738,0,0,0-7.935-.88,14.247,14.247,0,0,0-7.232,3.98,9.672,9.672,0,0,1,10.963-8.718,25,25,0,0,1,11.442,4.321c.309.207.61.44.906.669.232.178.446.37.639.531-2.1,4.6-8.755,8.687-13.6,8.557a23.5,23.5,0,0,1-7.466-1.327,1.281,1.281,0,0,0-1.128.464c-.868,1.421-1.589,2.932-2.455,4.353a2.06,2.06,0,0,1-1.238.893c-.739.124-1.358-1.006-.914-1.727,3.036-4.916,6.554-9.315,12.6-10.643a33.411,33.411,0,0,1,4.348-.4C902.7,583.617,903.06,583.6,903.419,583.573Z" transform="translate(-827.011 -564.96)" fill="#8e1597"/>
  <path id="Tracé_116" data-name="Tracé 116" d="M870.2,632.7c2.6-1.522,5.01-3.123,7.3.049a23.78,23.78,0,0,1,2.036-1.233c3.13-1.5,5.422-.091,5.5,3.384.04,1.712.028,3.427,0,5.14a1.3,1.3,0,0,0,.839,1.465c.34.148.562.8.619,1.243.02.155-.606.552-.951.572-1.249.071-2.507.058-3.759.008-.352-.015-.991-.269-.988-.406a4.113,4.113,0,0,1,.387-1.442c.217-.527.7-1.01.732-1.536.1-1.455.061-2.923.025-4.384-.036-1.386-.606-2.012-1.706-1.977a2.292,2.292,0,0,0-2.458,2.089c-.016,1.337,0,2.674-.006,4.011,0,.748-.077,1.454.786,1.923.255.138.271.906.2,1.357-.026.17-.592.355-.918.368-1.126.045-2.257.053-3.383,0-.342-.017-.934-.267-.952-.453-.041-.436.058-1.132.349-1.306a1.732,1.732,0,0,0,.8-1.806c-.022-1.378.041-2.758-.026-4.134-.077-1.547-.532-2.058-1.624-2.044a2.486,2.486,0,0,0-2.648,2.235c-.028,1.378-.077,2.763.029,4.134.042.528.518,1.013.746,1.538a3.036,3.036,0,0,1,.387,1.31c-.014.2-.579.509-.9.523-1.377.058-2.758.053-4.135,0-.291-.011-.816-.33-.808-.485.022-.438.192-1.185.436-1.238,1.327-.309,1.248-1.258,1.238-2.243-.016-1.629-.024-3.26,0-4.889a1.268,1.268,0,0,0-.937-1.4c-.359-.136-.542-.736-.8-1.127a3.871,3.871,0,0,1,1.091-.652,14.484,14.484,0,0,1,1.748-.06C869.4,631.146,870.229,631.206,870.2,632.7Z" transform="translate(-822.562 -576.969)" fill="#8e1597"/>
  <path id="Tracé_117" data-name="Tracé 117" d="M821.317,639.915c-.3-1.872-.3-1.872-2-1.875h-2.379c-1.615,0-1.631.017-1.911,1.834,1.015.409,2.352.7,1.513,2.386h-6.381c-.338-1.023-.379-1.812.955-2.152.367-.094.715-.656.878-1.079,1.419-3.69,2.856-7.375,4.146-11.111a2.054,2.054,0,0,1,2.237-1.6,2.109,2.109,0,0,1,2.512,1.7c1.189,3.68,2.566,7.3,3.945,10.914a2.692,2.692,0,0,0,1.276,1.32,1.034,1.034,0,0,1,.644,1.392,1.385,1.385,0,0,1-1.057.629c-1.583.069-3.171.077-4.755,0a1.535,1.535,0,0,1-1.167-.644.965.965,0,0,1,.794-1.392A4.575,4.575,0,0,0,821.317,639.915Zm-5.069-4.172h3.9c-.619-1.945-1.173-3.7-1.728-5.455l-.354.037c-.576,1.719-1.151,3.439-1.814,5.418Z" transform="translate(-809.959 -575.924)" fill="#8e1597"/>
  <path id="Tracé_118" data-name="Tracé 118" d="M927.459,628.755c-1.738,0-3.076-.07-4.4.044a1.492,1.492,0,0,0-1.016.936c-.238.976-.816,1.112-1.653,1.035-.975-.09-.654-.82-.662-1.329-.045-3.194-.033-3.19,3.211-3.178,2.266.009,4.531-.022,6.8.023.614.012,1.742.209,1.75.37a4.717,4.717,0,0,1-.344,2.716c-2.081,3.072-4.342,6.02-6.534,9.016-.266.364-.509.746-.953,1.4,1.915,0,3.586.042,5.249-.052.212-.011.493-.713.552-1.122.122-.866.5-1.228,1.4-1.157.972.078.709.768.718,1.291.06,3.545.053,3.545-3.471,3.545-2.338,0-4.676.026-7.014-.017-.615-.011-1.744-.2-1.753-.362a4.28,4.28,0,0,1,.374-2.467c1.494-2.257,3.171-4.391,4.777-6.578C925.417,631.6,926.326,630.327,927.459,628.755Z" transform="translate(-834.722 -575.914)" fill="#8e1597"/>
  <path id="Tracé_119" data-name="Tracé 119" d="M884.576,561.172c5.47,5.82,6.214,12.351,1.532,17.23-.458-1.815-.943-3.4-1.243-5.028-.309-1.665-.434-3.365-.678-5.369a10.341,10.341,0,0,0-.933,5.712c.2,1.835.688,3.636,1.083,5.6a7.971,7.971,0,0,1-4.438-5.09c-.943-3.326.071-6.35,1.813-9.156C882.536,563.739,883.566,562.533,884.576,561.172Z" transform="translate(-825.718 -561.172)" fill="#8e1597"/>
  <path id="Tracé_120" data-name="Tracé 120" d="M960.166,632.56c.965-.456,1.835-.948,2.76-1.287,2.6-.952,4.627.452,4.676,3.221.033,1.877.026,3.755,0,5.633-.008.666.155,1.139.876,1.279a.959.959,0,0,1,.8,1.387c-.117.292-.735.518-1.139.541a35.743,35.743,0,0,1-3.629.005c-.352-.016-.98-.264-.986-.422a3.922,3.922,0,0,1,.35-1.447c.173-.46.592-.882.614-1.336.077-1.581.051-3.171.02-4.755-.024-1.209-.662-1.881-1.706-1.9a2.449,2.449,0,0,0-2.487,1.957c-.029,1.586-.056,3.171.022,4.756.022.447.44.865.623,1.315a3.1,3.1,0,0,1,.359,1.32c-.018.2-.589.49-.919.5-1.333.057-2.672.057-4.005,0-.33-.015-.913-.324-.914-.5,0-.426.192-1.167.445-1.23,1.219-.309,1.244-1.153,1.228-2.121-.027-1.625-.032-3.256,0-4.883.017-.811-.189-1.315-1.067-1.553-.3-.082-.6-.71-.619-1.1-.007-.216.555-.586.9-.651a11.217,11.217,0,0,1,1.873-.053C959.623,631.225,959.623,631.225,960.166,632.56Z" transform="translate(-842.914 -576.982)" fill="#8e1597"/>
  <path id="Tracé_121" data-name="Tracé 121" d="M902.564,643.344l-.648-1.392c-.674.394-1.258.8-1.89,1.094a3.748,3.748,0,0,1-4.132-.227c-1.306-1.012-1.279-2.488-.928-3.9.406-1.609,1.8-2.088,3.236-2.349.733-.134,1.51-.018,2.243-.144.491-.084,1.36-.437,1.343-.6a3.935,3.935,0,0,0-.686-2.34c-1-.928-2.785-.291-3.547.88a1.879,1.879,0,0,1-1.354.5c-.187.009-.548-.541-.578-.855-.214-2.3-.2-2.365,2.207-2.751a18.729,18.729,0,0,1,3.974-.207,3.15,3.15,0,0,1,3.131,3.381c.06,1.836.036,3.674.02,5.51-.006.728.065,1.262.968,1.461.328.072.524.746.78,1.146a3.268,3.268,0,0,1-1.03.572C904.654,643.262,903.613,643.279,902.564,643.344Zm-.856-5.319a24.545,24.545,0,0,0-2.978.373c-.89.218-1.05.983-.857,1.8a1.335,1.335,0,0,0,1.555,1.074l.038-.008c1.637-.135,2.542-1.319,2.242-3.243Z" transform="translate(-829.165 -576.994)" fill="#8e1597"/>
  <path id="Tracé_122" data-name="Tracé 122" d="M848.076,637.468c-.049-3.481,1.665-6.012,4.506-6.42,5.934-.858,7.744,3.052,7.057,7.438-.7,4.456-4.344,5.664-8.045,4.77C849.241,642.684,848.121,640.717,848.076,637.468Zm8.461-.242a17.012,17.012,0,0,0-.323-2.117,2.4,2.4,0,0,0-4.681.162,18.068,18.068,0,0,0,.053,4.058,2.064,2.064,0,0,0,2.2,1.826,2.182,2.182,0,0,0,2.4-1.742C856.358,638.69,856.425,637.946,856.537,637.226Z" transform="translate(-818.592 -576.971)" fill="#8e1597"/>
  <path id="Tracé_123" data-name="Tracé 123" d="M937.871,637.555c-.021-3.35,1.218-5.525,3.757-6.282,2.13-.635,4.346-.7,6.135.921,1.856,1.672,2.071,3.945,1.686,6.234-.753,4.481-4.285,5.667-8.023,4.828a4.671,4.671,0,0,1-3.468-4.265C937.906,638.451,937.892,637.909,937.871,637.555Zm8.458-.277a16.978,16.978,0,0,0-.3-2.145,2.4,2.4,0,0,0-4.7.2,16.241,16.241,0,0,0,.084,4.055,2.058,2.058,0,0,0,2.26,1.747,2.172,2.172,0,0,0,2.307-1.7c.18-.719.244-1.464.357-2.16Z" transform="translate(-838.929 -576.955)" fill="#8e1597"/>
  <path id="Tracé_124" data-name="Tracé 124" d="M978.955,637.906c-.179,1.983.922,3.273,2.79,3.176a10.045,10.045,0,0,0,2.9-.631c.77-.283,1.039.039,1.348.6.387.708-.071.981-.571,1.255a8.431,8.431,0,0,1-5.879,1.042,4.508,4.508,0,0,1-3.6-2.958,8.154,8.154,0,0,1,.282-6.549c1.3-2.6,4.119-3.437,7.1-2.611,2.372.657,3.541,2.971,3.046,5.823a1.281,1.281,0,0,1-.96.739c-1.748.078-3.5.038-5.253.047C979.753,637.848,979.346,637.886,978.955,637.906ZM983,636c.186-1.638-.249-2.414-1.37-2.641a2.314,2.314,0,0,0-2.638,1.6c-.189.559-.185,1.025.572,1.037,1.153.019,2.305.005,3.436.005Z" transform="translate(-847.427 -576.971)" fill="#8e1597"/>
  <path id="Tracé_125" data-name="Tracé 125" d="M838.215,632.2a40.568,40.568,0,0,1,3.979-1.149c.908-.17,1.357.422,1.213,1.392a20.462,20.462,0,0,1-.244,2.106,1.19,1.19,0,0,1-.784.773,1.3,1.3,0,0,1-.992-.591c-.254-.449.013-1.338-.92-1.136s-1.964.558-2.034,1.709c-.1,1.706.006,3.424-.043,5.135-.026.869.606.928,1.141,1.026.706.134,1.006.46.965,1.183-.048.851-.647.718-1.175.72-1.629.005-3.26.032-4.886-.025-.315-.011-.88-.37-.872-.548.018-.423.25-1.146.5-1.2,1.26-.248,1.272-1.083,1.249-2.064-.039-1.67-.032-3.342,0-5.012.013-.7-.113-1.269-.917-1.361-.769-.087-1.09-.589-.845-1.2.135-.333.744-.565,1.18-.663.518-.117,1.092.029,1.62-.061C837.435,631.057,838.082,631.466,838.215,632.2Z" transform="translate(-815.285 -576.993)" fill="#8e1597"/>
</svg>
