<svg xmlns="http://www.w3.org/2000/svg" xmlns:xlink="http://www.w3.org/1999/xlink" version="1.1" x="0px" y="0px" viewBox="0 0 100 125" enable-background="new 0 0 100 100" xml:space="preserve"><path fill="#000000" d="M50,5h-0.2C38,5,27.3,9.6,19.2,17.1c0.6,0.3,1,0.7,1.6,0.9c7.7-6.8,17.8-11.2,29-11.2H50  c24.2,0,43.2,19,43.2,43.2c0,23.9-19.4,43.2-43.2,43.2c-11.2,0-21.4-4.3-29.1-11.3l-1.6,0.9C27.4,90.5,38.2,95,50,95  c24.7,0,45-20.2,45-45C95,24.9,75.3,5,50,5z"/><polygon fill="#000000" points="52.7,64.4 77,50 52.7,34.7 52.7,49.1 5,49.1 5,50.9 52.7,50.9 "/><text x="0" y="115" fill="#000000" font-size="5px" font-weight="bold" font-family="'Helvetica Neue', Helvetica, Arial-Unicode, Arial, Sans-serif">Created by Oleg Frolov</text><text x="0" y="120" fill="#000000" font-size="5px" font-weight="bold" font-family="'Helvetica Neue', Helvetica, Arial-Unicode, Arial, Sans-serif">from the Noun Project</text></svg>