<svg xmlns="http://www.w3.org/2000/svg" width="16.507" height="21.46" viewBox="0 0 16.507 21.46">
  <path id="Icon_ionic-logo-euro" data-name="Icon ionic-logo-euro" d="M13.869,14.93V12.454h6.763L21,9.978H13.869V9.884c0-1.853.772-3,4.088-3a28.859,28.859,0,0,1,4.807.451l.493-3.351a23.381,23.381,0,0,0-5.465-.612c-5.918,0-8.463,2.127-8.463,6.058v.545H6.75v2.476H9.329V14.93H6.75v2.476H9.329v1.371c0,3.931,2.543,6.058,8.461,6.058a23.345,23.345,0,0,0,5.461-.612l-.5-3.351a28.779,28.779,0,0,1-4.8.451c-3.316,0-4.087-.967-4.087-3.254v-.662h6.025l.369-2.476Z" transform="translate(-6.75 -3.375)" fill="#552a58"/>
</svg>
