<svg xmlns="http://www.w3.org/2000/svg" width="32.274" height="32.274" viewBox="0 0 32.274 32.274">
  <path id="_036-facebook" data-name="036-facebook" d="M27.927,0H4.351A4.349,4.349,0,0,0,0,4.349V27.925a4.349,4.349,0,0,0,4.349,4.349H15.978L16,20.741H13a.707.707,0,0,1-.707-.7l-.014-3.718a.707.707,0,0,1,.707-.71h2.991V12.017c0-4.169,2.546-6.438,6.265-6.438h3.051A.707.707,0,0,1,26,6.286V9.421a.707.707,0,0,1-.707.707H23.422c-2.022,0-2.414.961-2.414,2.371v3.11h4.444a.707.707,0,0,1,.7.79l-.441,3.718a.707.707,0,0,1-.7.624H21.028l-.02,11.533h6.919a4.349,4.349,0,0,0,4.349-4.349V4.349A4.349,4.349,0,0,0,27.927,0Z" transform="translate(-0.002)" fill="#8e1597"/>
</svg>
