<svg xmlns="http://www.w3.org/2000/svg" width="66.747" height="10.732" viewBox="0 0 66.747 10.732">
  <g id="Groupe_309" data-name="Groupe 309" transform="translate(-43.853 -470.991)">
    <g id="Groupe_70" data-name="Groupe 70" transform="translate(43.853 470.991)">
      <path id="Icon_ionic-ios-star" data-name="Icon ionic-ios-star" d="M13.369,7.09H9.574L8.421,3.648a.418.418,0,0,0-.784,0L6.483,7.09H2.663A.414.414,0,0,0,2.25,7.5a.3.3,0,0,0,.008.07.4.4,0,0,0,.173.292l3.119,2.2-1.2,3.48a.414.414,0,0,0,.142.464.4.4,0,0,0,.232.1.506.506,0,0,0,.258-.093l3.044-2.17,3.044,2.17a.483.483,0,0,0,.258.093.371.371,0,0,0,.23-.1.409.409,0,0,0,.142-.464l-1.2-3.48L13.6,7.843l.075-.064a.394.394,0,0,0-.3-.689Z" transform="translate(-2.25 -3.375)" fill="#8e1597"/>
      <path id="Icon_ionic-ios-star-2" data-name="Icon ionic-ios-star" d="M13.369,7.09H9.574L8.421,3.648a.418.418,0,0,0-.784,0L6.483,7.09H2.663A.414.414,0,0,0,2.25,7.5a.3.3,0,0,0,.008.07.4.4,0,0,0,.173.292l3.119,2.2-1.2,3.48a.414.414,0,0,0,.142.464.4.4,0,0,0,.232.1.506.506,0,0,0,.258-.093l3.044-2.17,3.044,2.17a.483.483,0,0,0,.258.093.371.371,0,0,0,.23-.1.409.409,0,0,0,.142-.464l-1.2-3.48L13.6,7.843l.075-.064a.394.394,0,0,0-.3-.689Z" transform="translate(11.619 -3.375)" fill="#8e1597"/>
      <path id="Icon_ionic-ios-star-3" data-name="Icon ionic-ios-star" d="M13.369,7.09H9.574L8.421,3.648a.418.418,0,0,0-.784,0L6.483,7.09H2.663A.414.414,0,0,0,2.25,7.5a.3.3,0,0,0,.008.07.4.4,0,0,0,.173.292l3.119,2.2-1.2,3.48a.414.414,0,0,0,.142.464.4.4,0,0,0,.232.1.506.506,0,0,0,.258-.093l3.044-2.17,3.044,2.17a.483.483,0,0,0,.258.093.371.371,0,0,0,.23-.1.409.409,0,0,0,.142-.464l-1.2-3.48L13.6,7.843l.075-.064a.394.394,0,0,0-.3-.689Z" transform="translate(25.488 -3.375)" fill="#8e1597"/>
      <path id="Icon_ionic-ios-star-4" data-name="Icon ionic-ios-star" d="M13.369,7.09H9.574L8.421,3.648a.418.418,0,0,0-.784,0L6.483,7.09H2.663A.414.414,0,0,0,2.25,7.5a.3.3,0,0,0,.008.07.4.4,0,0,0,.173.292l3.119,2.2-1.2,3.48a.414.414,0,0,0,.142.464.4.4,0,0,0,.232.1.506.506,0,0,0,.258-.093l3.044-2.17,3.044,2.17a.483.483,0,0,0,.258.093.371.371,0,0,0,.23-.1.409.409,0,0,0,.142-.464l-1.2-3.48L13.6,7.843l.075-.064a.394.394,0,0,0-.3-.689Z" transform="translate(39.357 -3.375)" fill="#8e1597"/>
    </g>
    <path id="Icon_ionic-ios-star-5" data-name="Icon ionic-ios-star" d="M13.369,7.09H9.574L8.421,3.648a.418.418,0,0,0-.784,0L6.483,7.09H2.663A.414.414,0,0,0,2.25,7.5a.3.3,0,0,0,.008.07.4.4,0,0,0,.173.292l3.119,2.2-1.2,3.48a.414.414,0,0,0,.142.464.4.4,0,0,0,.232.1.506.506,0,0,0,.258-.093l3.044-2.17,3.044,2.17a.483.483,0,0,0,.258.093.371.371,0,0,0,.23-.1.409.409,0,0,0,.142-.464l-1.2-3.48L13.6,7.843l.075-.064a.394.394,0,0,0-.3-.689Z" transform="translate(96.793 467.616)" fill="#8e1597"/>
  </g>
</svg>
