<svg xmlns="http://www.w3.org/2000/svg" width="123.384" height="19.839" viewBox="0 0 123.384 19.839">
  <g id="Groupe_100" data-name="Groupe 100" transform="translate(-747.881 -3848)">
    <g id="Groupe_23" data-name="Groupe 23" transform="translate(747.881 3848)">
      <path id="Icon_ionic-ios-star" data-name="Icon ionic-ios-star" d="M22.8,10.242H15.789L13.657,3.881a.772.772,0,0,0-1.45,0l-2.132,6.362H3.013a.765.765,0,0,0-.763.763.561.561,0,0,0,.014.129.733.733,0,0,0,.32.539l5.766,4.063L6.137,22.169a.765.765,0,0,0,.262.858.738.738,0,0,0,.429.186.935.935,0,0,0,.477-.172l5.627-4.011,5.627,4.011a.894.894,0,0,0,.477.172.685.685,0,0,0,.424-.186.756.756,0,0,0,.262-.858L17.51,15.736l5.718-4.1.138-.119a.8.8,0,0,0,.248-.51A.808.808,0,0,0,22.8,10.242Z" transform="translate(-2.25 -3.375)" fill="#8e1597"/>
      <path id="Icon_ionic-ios-star-2" data-name="Icon ionic-ios-star" d="M22.8,10.242H15.789L13.657,3.881a.772.772,0,0,0-1.45,0l-2.132,6.362H3.013a.765.765,0,0,0-.763.763.561.561,0,0,0,.014.129.733.733,0,0,0,.32.539l5.766,4.063L6.137,22.169a.765.765,0,0,0,.262.858.738.738,0,0,0,.429.186.935.935,0,0,0,.477-.172l5.627-4.011,5.627,4.011a.894.894,0,0,0,.477.172.685.685,0,0,0,.424-.186.756.756,0,0,0,.262-.858L17.51,15.736l5.718-4.1.138-.119a.8.8,0,0,0,.248-.51A.808.808,0,0,0,22.8,10.242Z" transform="translate(23.388 -3.375)" fill="#8e1597"/>
      <path id="Icon_ionic-ios-star-3" data-name="Icon ionic-ios-star" d="M22.8,10.242H15.789L13.657,3.881a.772.772,0,0,0-1.45,0l-2.132,6.362H3.013a.765.765,0,0,0-.763.763.561.561,0,0,0,.014.129.733.733,0,0,0,.32.539l5.766,4.063L6.137,22.169a.765.765,0,0,0,.262.858.738.738,0,0,0,.429.186.935.935,0,0,0,.477-.172l5.627-4.011,5.627,4.011a.894.894,0,0,0,.477.172.685.685,0,0,0,.424-.186.756.756,0,0,0,.262-.858L17.51,15.736l5.718-4.1.138-.119a.8.8,0,0,0,.248-.51A.808.808,0,0,0,22.8,10.242Z" transform="translate(49.025 -3.375)" fill="#8e1597"/>
      <path id="Icon_ionic-ios-star-4" data-name="Icon ionic-ios-star" d="M22.8,10.242H15.789L13.657,3.881a.772.772,0,0,0-1.45,0l-2.132,6.362H3.013a.765.765,0,0,0-.763.763.561.561,0,0,0,.014.129.733.733,0,0,0,.32.539l5.766,4.063L6.137,22.169a.765.765,0,0,0,.262.858.738.738,0,0,0,.429.186.935.935,0,0,0,.477-.172l5.627-4.011,5.627,4.011a.894.894,0,0,0,.477.172.685.685,0,0,0,.424-.186.756.756,0,0,0,.262-.858L17.51,15.736l5.718-4.1.138-.119a.8.8,0,0,0,.248-.51A.808.808,0,0,0,22.8,10.242Z" transform="translate(74.663 -3.375)" fill="#8e1597"/>
    </g>
    <path id="Icon_ionic-ios-star-5" data-name="Icon ionic-ios-star" d="M22.8,10.242H15.789L13.657,3.881a.772.772,0,0,0-1.45,0l-2.132,6.362H3.013a.765.765,0,0,0-.763.763.561.561,0,0,0,.014.129.733.733,0,0,0,.32.539l5.766,4.063L6.137,22.169a.765.765,0,0,0,.262.858.738.738,0,0,0,.429.186.935.935,0,0,0,.477-.172l5.627-4.011,5.627,4.011a.894.894,0,0,0,.477.172.685.685,0,0,0,.424-.186.756.756,0,0,0,.262-.858L17.51,15.736l5.718-4.1.138-.119a.8.8,0,0,0,.248-.51A.808.808,0,0,0,22.8,10.242Z" transform="translate(847.65 3844.625)" fill="#8e1597"/>
  </g>
</svg>
