<svg id="Groupe_71" data-name="Groupe 71" xmlns="http://www.w3.org/2000/svg" width="64.784" height="10.418" viewBox="0 0 64.784 10.418">
  <path id="Icon_ionic-ios-star" data-name="Icon ionic-ios-star" d="M13.044,6.981H9.36L8.24,3.64a.406.406,0,0,0-.761,0L6.36,6.981H2.651a.4.4,0,0,0-.4.4.294.294,0,0,0,.008.068.385.385,0,0,0,.168.283L5.453,9.866,4.291,13.244a.4.4,0,0,0,.138.451.388.388,0,0,0,.225.1.491.491,0,0,0,.25-.09L7.86,11.6,10.815,13.7a.469.469,0,0,0,.25.09.36.36,0,0,0,.223-.1.4.4,0,0,0,.138-.451L10.264,9.866l3-2.154.073-.063a.383.383,0,0,0-.3-.669Z" transform="translate(-2.25 -3.375)" fill="#8e1597"/>
  <path id="Icon_ionic-ios-star-2" data-name="Icon ionic-ios-star" d="M13.044,6.981H9.36L8.24,3.64a.406.406,0,0,0-.761,0L6.36,6.981H2.651a.4.4,0,0,0-.4.4.294.294,0,0,0,.008.068.385.385,0,0,0,.168.283L5.453,9.866,4.291,13.244a.4.4,0,0,0,.138.451.388.388,0,0,0,.225.1.491.491,0,0,0,.25-.09L7.86,11.6,10.815,13.7a.469.469,0,0,0,.25.09.36.36,0,0,0,.223-.1.4.4,0,0,0,.138-.451L10.264,9.866l3-2.154.073-.063a.383.383,0,0,0-.3-.669Z" transform="translate(11.213 -3.375)" fill="#8e1597"/>
  <path id="Icon_ionic-ios-star-3" data-name="Icon ionic-ios-star" d="M13.044,6.981H9.36L8.24,3.64a.406.406,0,0,0-.761,0L6.36,6.981H2.651a.4.4,0,0,0-.4.4.294.294,0,0,0,.008.068.385.385,0,0,0,.168.283L5.453,9.866,4.291,13.244a.4.4,0,0,0,.138.451.388.388,0,0,0,.225.1.491.491,0,0,0,.25-.09L7.86,11.6,10.815,13.7a.469.469,0,0,0,.25.09.36.36,0,0,0,.223-.1.4.4,0,0,0,.138-.451L10.264,9.866l3-2.154.073-.063a.383.383,0,0,0-.3-.669Z" transform="translate(24.677 -3.375)" fill="#8e1597"/>
  <path id="Icon_ionic-ios-star-4" data-name="Icon ionic-ios-star" d="M13.044,6.981H9.36L8.24,3.64a.406.406,0,0,0-.761,0L6.36,6.981H2.651a.4.4,0,0,0-.4.4.294.294,0,0,0,.008.068.385.385,0,0,0,.168.283L5.453,9.866,4.291,13.244a.4.4,0,0,0,.138.451.388.388,0,0,0,.225.1.491.491,0,0,0,.25-.09L7.86,11.6,10.815,13.7a.469.469,0,0,0,.25.09.36.36,0,0,0,.223-.1.4.4,0,0,0,.138-.451L10.264,9.866l3-2.154.073-.063a.383.383,0,0,0-.3-.669Z" transform="translate(38.14 -3.375)" fill="#8e1597"/>
  <path id="Icon_ionic-ios-star-outline" data-name="Icon ionic-ios-star-outline" d="M13.044,6.981H9.36L8.24,3.64a.406.406,0,0,0-.761,0L6.36,6.981H2.651a.4.4,0,0,0-.4.4.294.294,0,0,0,.008.068.385.385,0,0,0,.168.283L5.453,9.866,4.291,13.244a.4.4,0,0,0,.138.451.388.388,0,0,0,.225.1.491.491,0,0,0,.25-.09L7.86,11.6,10.815,13.7a.469.469,0,0,0,.25.09.36.36,0,0,0,.223-.1.4.4,0,0,0,.138-.451L10.264,9.866l3-2.154.073-.063a.383.383,0,0,0-.3-.669ZM9.858,9.3a.7.7,0,0,0-.255.8l.754,2.2a.1.1,0,0,1-.153.115L8.265,11.023a.7.7,0,0,0-.408-.13.687.687,0,0,0-.406.13L5.513,12.4a.1.1,0,0,1-.153-.115l.754-2.2a.706.706,0,0,0-.258-.8L3.828,7.86a.1.1,0,0,1,.058-.183H6.357A.7.7,0,0,0,7.021,7.2L7.762,4.99a.1.1,0,0,1,.19,0L8.694,7.2a.7.7,0,0,0,.664.478h2.437a.1.1,0,0,1,.058.18Z" transform="translate(51.314 -3.375)" fill="#8e1597"/>
</svg>
