<svg id="_029-instagram" data-name="029-instagram" xmlns="http://www.w3.org/2000/svg" width="32.538" height="32.538" viewBox="0 0 32.538 32.538">
  <path id="Tracé_196" data-name="Tracé 196" d="M22.845,0H9.693A9.7,9.7,0,0,0,0,9.693V22.845a9.7,9.7,0,0,0,9.693,9.693H22.845a9.7,9.7,0,0,0,9.693-9.693V9.693A9.7,9.7,0,0,0,22.845,0Zm6.42,22.845a6.42,6.42,0,0,1-6.42,6.42H9.693a6.42,6.42,0,0,1-6.42-6.42V9.693a6.42,6.42,0,0,1,6.42-6.42H22.845a6.42,6.42,0,0,1,6.42,6.42V22.845Z" fill="#8e1597"/>
  <path id="Tracé_197" data-name="Tracé 197" d="M141.416,133a8.416,8.416,0,1,0,8.416,8.415A8.425,8.425,0,0,0,141.416,133Zm0,13.558a5.142,5.142,0,1,1,5.142-5.142A5.142,5.142,0,0,1,141.416,146.558Z" transform="translate(-125.146 -125.146)" fill="#8e1597"/>
  <ellipse id="Ellipse_20" data-name="Ellipse 20" cx="2.017" cy="2.017" rx="2.017" ry="2.017" transform="translate(22.685 5.9)" fill="#8e1597"/>
</svg>
