<svg xmlns="http://www.w3.org/2000/svg" width="17.635" height="17.635" viewBox="0 0 17.635 17.635">
  <path id="Icon_material-account-circle" data-name="Icon material-account-circle" d="M11.817,3a8.817,8.817,0,1,0,8.817,8.817A8.82,8.82,0,0,0,11.817,3Zm0,2.645A2.645,2.645,0,1,1,9.172,8.29,2.642,2.642,0,0,1,11.817,5.645Zm0,12.521a6.349,6.349,0,0,1-5.29-2.839c.026-1.755,3.527-2.716,5.29-2.716s5.264.961,5.29,2.716A6.349,6.349,0,0,1,11.817,18.166Z" transform="translate(-3 -3)" fill="#552a58"/>
</svg>
