<svg id="Groupe_159" data-name="Groupe 159" xmlns="http://www.w3.org/2000/svg" width="58.14" height="27.831" viewBox="0 0 58.14 27.831">
  <path id="Tracé_115" data-name="Tracé 115" d="M892.845,580.269a4.907,4.907,0,0,0-3.318-.368,5.956,5.956,0,0,0-3.024,1.664,4.044,4.044,0,0,1,4.583-3.645,10.453,10.453,0,0,1,4.784,1.807c.129.087.255.184.379.28.1.074.187.155.267.222a7.014,7.014,0,0,1-5.688,3.578,9.823,9.823,0,0,1-3.121-.555.536.536,0,0,0-.472.194c-.363.594-.664,1.226-1.026,1.82a.861.861,0,0,1-.518.374c-.309.052-.568-.42-.382-.722,1.269-2.056,2.74-3.895,5.268-4.45a13.978,13.978,0,0,1,1.818-.167C892.545,580.287,892.7,580.279,892.845,580.269Z" transform="translate(-860.899 -572.487)" fill="#8e1597"/>
  <path id="Tracé_116" data-name="Tracé 116" d="M867.524,631.664c1.085-.636,2.095-1.306,3.051.02q.413-.279.851-.515c1.309-.627,2.267-.038,2.3,1.415.017.716.012,1.433,0,2.149a.545.545,0,0,0,.351.613c.142.062.235.333.259.52.008.065-.253.231-.4.239-.522.03-1.048.024-1.572,0-.147-.006-.414-.112-.413-.17a1.722,1.722,0,0,1,.162-.6c.091-.22.291-.422.306-.642.042-.608.026-1.222.01-1.833-.015-.58-.253-.841-.713-.827a.958.958,0,0,0-1.028.873c-.006.559,0,1.118,0,1.677,0,.313-.032.608.329.8.107.058.113.379.085.567-.011.071-.247.148-.384.154-.471.019-.944.022-1.414,0-.143-.007-.391-.112-.4-.19-.017-.182.024-.474.146-.546a.724.724,0,0,0,.335-.755c-.009-.576.017-1.153-.011-1.728-.032-.647-.223-.861-.679-.855a1.039,1.039,0,0,0-1.107.935c-.012.576-.032,1.155.012,1.728.017.221.216.423.312.643a1.271,1.271,0,0,1,.162.548c-.006.084-.242.213-.378.219-.576.024-1.153.022-1.729,0-.122,0-.341-.138-.338-.2.009-.183.08-.5.182-.517.555-.129.522-.526.517-.938-.007-.681-.01-1.363,0-2.044a.53.53,0,0,0-.392-.586c-.15-.057-.226-.308-.336-.471a1.618,1.618,0,0,1,.456-.273,6.062,6.062,0,0,1,.731-.025C867.191,631.013,867.537,631.039,867.524,631.664Z" transform="translate(-847.607 -608.362)" fill="#8e1597"/>
  <path id="Tracé_117" data-name="Tracé 117" d="M814.708,632c-.124-.783-.124-.783-.836-.784h-.995c-.675,0-.682.007-.8.767.424.171.984.293.633,1h-2.668c-.141-.428-.159-.758.4-.9.153-.039.3-.274.367-.451.593-1.543,1.194-3.083,1.733-4.645a.859.859,0,0,1,.935-.669.882.882,0,0,1,1.05.711c.5,1.539,1.073,3.052,1.649,4.563a1.125,1.125,0,0,0,.534.552.431.431,0,0,1,.286.538.437.437,0,0,1-.016.045.579.579,0,0,1-.442.263c-.662.029-1.326.032-1.988,0a.642.642,0,0,1-.488-.269.4.4,0,0,1,.332-.582A1.911,1.911,0,0,0,814.708,632Zm-2.119-1.744h1.629c-.259-.813-.49-1.547-.722-2.281l-.148.016-.758,2.265Z" transform="translate(-809.959 -605.241)" fill="#8e1597"/>
  <path id="Tracé_118" data-name="Tracé 118" d="M922.708,627.3c-.727,0-1.286-.029-1.839.018a.624.624,0,0,0-.425.391c-.1.408-.341.465-.691.433-.407-.037-.274-.343-.277-.556-.019-1.335-.014-1.334,1.342-1.329.947,0,1.895-.009,2.841.01.257.005.728.087.732.155a1.973,1.973,0,0,1-.144,1.135c-.87,1.284-1.815,2.517-2.732,3.77-.111.152-.213.312-.4.585.8,0,1.5.017,2.195-.022.089,0,.206-.3.231-.469.051-.362.208-.514.586-.484.407.033.3.321.3.54.025,1.482.022,1.482-1.451,1.482-.978,0-1.955.011-2.933-.007-.257,0-.729-.084-.733-.151a1.789,1.789,0,0,1,.157-1.032c.625-.944,1.326-1.836,2-2.75C921.855,628.494,922.235,627.961,922.708,627.3Z" transform="translate(-883.935 -605.211)" fill="#8e1597"/>
  <path id="Tracé_119" data-name="Tracé 119" d="M881.645,561.172c2.287,2.433,2.6,5.164.641,7.2-.192-.759-.394-1.423-.52-2.1-.129-.7-.181-1.407-.284-2.245a4.323,4.323,0,0,0-.39,2.388c.083.767.288,1.52.453,2.34a3.333,3.333,0,0,1-1.855-2.128,4.655,4.655,0,0,1,.758-3.828C880.792,562.245,881.223,561.741,881.645,561.172Z" transform="translate(-857.037 -561.172)" fill="#8e1597"/>
  <path id="Tracé_120" data-name="Tracé 120" d="M957.43,631.638c.4-.191.767-.4,1.154-.538a1.349,1.349,0,0,1,1.955,1.347c.014.785.011,1.57,0,2.355,0,.278.065.476.366.535a.4.4,0,0,1,.333.58c-.049.122-.307.217-.476.226a14.92,14.92,0,0,1-1.517,0c-.147-.006-.41-.11-.412-.177a1.64,1.64,0,0,1,.146-.605c.073-.192.247-.369.257-.559.032-.661.021-1.326.008-1.988-.01-.505-.277-.787-.713-.793a1.024,1.024,0,0,0-1.04.818c-.012.663-.023,1.326.009,1.989.009.187.184.362.261.55a1.3,1.3,0,0,1,.15.552c-.007.084-.246.2-.384.211-.558.024-1.117.024-1.675,0-.138-.006-.382-.136-.382-.21,0-.178.08-.488.186-.514.51-.129.52-.482.513-.887-.011-.68-.014-1.361,0-2.042.007-.339-.079-.55-.446-.649-.126-.034-.253-.3-.259-.46,0-.09.232-.245.378-.272a4.673,4.673,0,0,1,.783-.022C957.2,631.08,957.2,631.08,957.43,631.638Z" transform="translate(-908.408 -608.401)" fill="#8e1597"/>
  <path id="Tracé_121" data-name="Tracé 121" d="M898.022,636.178l-.271-.582c-.282.165-.526.332-.79.457a1.567,1.567,0,0,1-1.728-.095,1.446,1.446,0,0,1-.388-1.63c.17-.673.754-.873,1.353-.982.306-.056.631-.007.938-.06.205-.035.569-.183.562-.249a1.646,1.646,0,0,0-.287-.978,1.051,1.051,0,0,0-1.483.368.785.785,0,0,1-.566.209c-.078,0-.229-.226-.242-.358-.089-.962-.085-.989.923-1.15a7.83,7.83,0,0,1,1.662-.086,1.317,1.317,0,0,1,1.309,1.414c.025.767.015,1.536.008,2.3,0,.3.027.528.405.611.137.03.219.312.326.479a1.365,1.365,0,0,1-.43.239C898.9,636.144,898.461,636.151,898.022,636.178Zm-.358-2.224a10.263,10.263,0,0,0-1.245.156c-.372.091-.439.411-.358.754a.558.558,0,0,0,.65.449l.016,0c.684-.057,1.063-.551.938-1.356Z" transform="translate(-867.334 -608.437)" fill="#8e1597"/>
  <path id="Tracé_122" data-name="Tracé 122" d="M848.075,633.663a2.389,2.389,0,0,1,1.884-2.684c2.481-.359,3.238,1.276,2.95,3.11-.291,1.863-1.816,2.368-3.363,1.994C848.562,635.844,848.094,635.021,848.075,633.663Zm3.538-.1a7.107,7.107,0,0,0-.135-.885,1,1,0,0,0-1.957.068,7.561,7.561,0,0,0,.022,1.7.863.863,0,0,0,.92.763.912.912,0,0,0,1-.728C851.538,634.174,851.566,633.863,851.613,633.562Z" transform="translate(-835.748 -608.369)" fill="#8e1597"/>
  <path id="Tracé_123" data-name="Tracé 123" d="M937.871,633.658c-.009-1.4.509-2.31,1.571-2.626a2.534,2.534,0,0,1,2.565.385,2.682,2.682,0,0,1,.7,2.606c-.315,1.874-1.792,2.369-3.354,2.018a1.953,1.953,0,0,1-1.45-1.783C937.885,634.032,937.88,633.806,937.871,633.658Zm3.536-.116a7.114,7.114,0,0,0-.127-.9,1,1,0,0,0-1.967.085,6.8,6.8,0,0,0,.035,1.7.86.86,0,0,0,.945.73.908.908,0,0,0,.965-.711c.075-.3.1-.612.149-.9Z" transform="translate(-896.503 -608.321)" fill="#8e1597"/>
  <path id="Tracé_124" data-name="Tracé 124" d="M976.881,633.846a1.083,1.083,0,0,0,1.167,1.328,4.2,4.2,0,0,0,1.212-.264c.322-.118.434.017.564.253.162.3-.03.41-.239.525a3.525,3.525,0,0,1-2.458.436,1.885,1.885,0,0,1-1.5-1.237,3.41,3.41,0,0,1,.118-2.738,2.4,2.4,0,0,1,2.969-1.092,1.964,1.964,0,0,1,1.274,2.435.536.536,0,0,1-.4.309c-.731.033-1.464.016-2.2.02C977.215,633.821,977.045,633.837,976.881,633.846Zm1.692-.8c.078-.685-.1-1.009-.573-1.1a.968.968,0,0,0-1.1.669c-.079.233-.077.428.239.433.482.008.964,0,1.437,0Z" transform="translate(-921.89 -608.369)" fill="#8e1597"/>
  <path id="Tracé_125" data-name="Tracé 125" d="M835.456,631.519a16.942,16.942,0,0,1,1.664-.48c.38-.071.567.176.507.582a8.539,8.539,0,0,1-.1.881.5.5,0,0,1-.328.323.543.543,0,0,1-.415-.247c-.106-.188.006-.559-.385-.475s-.821.233-.85.714c-.043.713,0,1.432-.018,2.147-.011.363.254.388.477.429.3.056.42.192.4.495-.02.356-.27.3-.491.3-.681,0-1.363.013-2.043-.01-.132,0-.368-.155-.365-.229.007-.177.1-.479.211-.5.527-.1.532-.453.522-.863-.017-.7-.013-1.4,0-2.1.005-.294-.047-.53-.383-.569s-.456-.246-.353-.5c.056-.139.311-.236.493-.277.217-.049.457.012.677-.026C835.13,631.039,835.4,631.21,835.456,631.519Z" transform="translate(-825.869 -608.435)" fill="#8e1597"/>
</svg>
