<svg xmlns="http://www.w3.org/2000/svg" width="20.433" height="11.919" viewBox="0 0 20.433 11.919">
  <g id="Icon_ionic-ios-menu" data-name="Icon ionic-ios-menu" transform="translate(-4.5 -10.125)">
    <path id="Tracé_39" data-name="Tracé 39" d="M24.082,11.828H5.351a.854.854,0,0,1-.851-.851h0a.854.854,0,0,1,.851-.851H24.082a.854.854,0,0,1,.851.851h0A.854.854,0,0,1,24.082,11.828Z" fill="#552a58"/>
    <path id="Tracé_40" data-name="Tracé 40" d="M24.082,18.578H5.351a.854.854,0,0,1-.851-.851h0a.854.854,0,0,1,.851-.851H24.082a.854.854,0,0,1,.851.851h0A.854.854,0,0,1,24.082,18.578Z" transform="translate(0 -1.642)" fill="#552a58"/>
    <path id="Tracé_41" data-name="Tracé 41" d="M24.082,25.328H5.351a.854.854,0,0,1-.851-.851h0a.854.854,0,0,1,.851-.851H24.082a.854.854,0,0,1,.851.851h0A.854.854,0,0,1,24.082,25.328Z" transform="translate(0 -3.283)" fill="#552a58"/>
  </g>
</svg>
