<svg xmlns="http://www.w3.org/2000/svg" width="104.25" height="111.215" viewBox="0 0 104.25 111.215">
  <g id="box_1_" data-name="box (1)" transform="translate(-16.032 0)">
    <g id="Groupe_295" data-name="Groupe 295" transform="translate(16.032 -0.001)">
      <g id="Groupe_294" data-name="Groupe 294">
        <path id="Tracé_1303" data-name="Tracé 1303" d="M119.361,24.539,68.865.161a1.63,1.63,0,0,0-1.416,0l-50.5,24.377a1.629,1.629,0,0,0-.921,1.467v59.2a1.629,1.629,0,0,0,.921,1.467l50.5,24.377a1.629,1.629,0,0,0,1.417,0l50.5-24.377a1.629,1.629,0,0,0,.921-1.467v-59.2A1.63,1.63,0,0,0,119.361,24.539Zm-51.2-21.1,46.749,22.568-13.551,6.542a1.615,1.615,0,0,0-.276-.174L54.647,9.96ZM50.968,11.8,97.649,34.337l-9.561,4.616L41.427,16.426ZM98.741,37.428V54.489L89.81,58.8V41.739Zm18.283,46.758-47.238,22.8V51.406l11.268-5.44a1.629,1.629,0,1,0-1.417-2.934l-11.48,5.542L63.64,46.393a1.629,1.629,0,0,0-1.417,2.934l4.3,2.078V106.99L19.29,84.185V28.6L55.261,45.967a1.629,1.629,0,0,0,1.416-2.934L21.408,26.006l16.184-7.813L86.53,41.818l.023.029V61.4a1.629,1.629,0,0,0,2.337,1.467l12.189-5.884A1.629,1.629,0,0,0,102,55.512V35.855L117.024,28.6V84.186Z" transform="translate(-16.032 0)"/>
      </g>
    </g>
    <g id="Groupe_297" data-name="Groupe 297" transform="translate(22.986 74.127)">
      <g id="Groupe_296" data-name="Groupe 296">
        <path id="Tracé_1304" data-name="Tracé 1304" d="M57.8,345l-7.41-3.577a1.629,1.629,0,1,0-1.417,2.934l7.41,3.577A1.629,1.629,0,0,0,57.8,345Z" transform="translate(-48.048 -341.261)"/>
      </g>
    </g>
    <g id="Groupe_299" data-name="Groupe 299" transform="translate(22.997 66.401)">
      <g id="Groupe_298" data-name="Groupe 298">
        <path id="Tracé_1305" data-name="Tracé 1305" d="M64.654,312.718l-14.22-6.865a1.629,1.629,0,0,0-1.416,2.934l14.22,6.865a1.629,1.629,0,0,0,1.416-2.934Z" transform="translate(-48.096 -305.69)"/>
      </g>
    </g>
  </g>
</svg>
