<svg xmlns="http://www.w3.org/2000/svg" width="32.692" height="32.692" viewBox="0 0 32.692 32.692">
  <path id="_021-pinterest" data-name="021-pinterest" d="M32.685,16.825A16.346,16.346,0,1,0,9.207,31.054a.461.461,0,0,0,.663-.433,12.288,12.288,0,0,1,.2-3.08c.207-.89,1.02-4.331,1.554-6.592a8.082,8.082,0,0,0,.082-3.355,6.864,6.864,0,0,1-.119-1.269c0-2.416,1.4-4.22,3.144-4.22a2.183,2.183,0,0,1,2.2,2.447c0,1.491-.949,3.72-1.439,5.785a2.523,2.523,0,0,0,2.573,3.14c3.088,0,5.462-3.256,5.462-7.956a6.859,6.859,0,0,0-7.258-7.069,7.521,7.521,0,0,0-7.846,7.54A6.759,6.759,0,0,0,9.72,19.958a.52.52,0,0,1,.121.5c-.132.549-.425,1.729-.483,1.97-.076.318-.252.385-.581.232-2.17-1.01-3.527-4.183-3.527-6.731,0-5.481,3.982-10.514,11.48-10.514,6.027,0,10.711,4.295,10.711,10.035,0,5.988-3.776,10.807-9.016,10.807a5.114,5.114,0,0,1-3.48-1.333.434.434,0,0,0-.727.2c-.273,1.041-.715,2.725-.857,3.272a15.1,15.1,0,0,1-1.337,3.132.462.462,0,0,0,.294.668,16.374,16.374,0,0,0,4.182.5A16.621,16.621,0,0,0,32.685,16.825Z" transform="translate(0 0)" fill="#8e1597"/>
</svg>
