<svg xmlns="http://www.w3.org/2000/svg" width="16.724" height="16.724" viewBox="0 0 16.724 16.724">
  <path id="Icon_awesome-plus-circle" data-name="Icon awesome-plus-circle" d="M8.924.563a8.362,8.362,0,1,0,8.362,8.362A8.36,8.36,0,0,0,8.924.563ZM13.78,9.868a.406.406,0,0,1-.4.4h-3.1v3.1a.406.406,0,0,1-.4.4H7.98a.406.406,0,0,1-.4-.4v-3.1h-3.1a.406.406,0,0,1-.4-.4V7.98a.406.406,0,0,1,.4-.4h3.1v-3.1a.406.406,0,0,1,.4-.4H9.868a.406.406,0,0,1,.4.4v3.1h3.1a.406.406,0,0,1,.4.4Z" transform="translate(-0.563 -0.563)" fill="#8e1597"/>
</svg>
