<svg xmlns="http://www.w3.org/2000/svg" width="230" height="158" viewBox="0 0 230 158">
  <g id="Groupe_309" data-name="Groupe 309" transform="translate(-68 -2188)">
    <text id="_5_" data-name="5 " transform="translate(68 2188)" fill="#707070" font-size="20" font-family="SegoeUI, Segoe UI"><tspan x="0" y="22">5 </tspan></text>
    <text id="_4" data-name="4" transform="translate(68 2220)" fill="#707070" font-size="20" font-family="SegoeUI, Segoe UI"><tspan x="0" y="22">4</tspan></text>
    <text id="_3" data-name="3" transform="translate(68 2253)" fill="#707070" font-size="20" font-family="SegoeUI, Segoe UI"><tspan x="0" y="22">3</tspan></text>
    <text id="_2" data-name="2" transform="translate(68 2286)" fill="#707070" font-size="20" font-family="SegoeUI, Segoe UI"><tspan x="0" y="22">2</tspan></text>
    <text id="_1" data-name="1" transform="translate(68 2319)" fill="#707070" font-size="20" font-family="SegoeUI, Segoe UI"><tspan x="0" y="22">1</tspan></text>
    <rect id="Rectangle_97" data-name="Rectangle 97" width="205" height="19" transform="translate(93 2191)" fill="#fff"/>
    <rect id="Rectangle_98" data-name="Rectangle 98" width="205" height="19" transform="translate(93 2223)" fill="#fff"/>
    <rect id="Rectangle_99" data-name="Rectangle 99" width="205" height="18" transform="translate(93 2256)" fill="#fff"/>
    <rect id="Rectangle_100" data-name="Rectangle 100" width="205" height="19" transform="translate(93 2289)" fill="#fff"/>
    <rect id="Rectangle_101" data-name="Rectangle 101" width="205" height="19" transform="translate(93 2322)" fill="#fff"/>
    <rect id="Rectangle_102" data-name="Rectangle 102" width="140" height="19" transform="translate(93 2191)" fill="#8e1597"/>
    <rect id="Rectangle_103" data-name="Rectangle 103" width="58" height="19" transform="translate(93 2223)" fill="#8e1597"/>
    <rect id="Rectangle_104" data-name="Rectangle 104" width="18" height="18" transform="translate(93 2256)" fill="#8e1597"/>
    <rect id="Rectangle_105" data-name="Rectangle 105" width="4" height="19" transform="translate(93 2322)" fill="#8e1597"/>
    <rect id="Rectangle_106" data-name="Rectangle 106" width="4" height="19" transform="translate(93 2289)" fill="#8e1597"/>
  </g>
</svg>
