<svg xmlns="http://www.w3.org/2000/svg" width="38.447" height="31.981" viewBox="0 0 38.447 31.981">
  <path id="_008-twitter" data-name="008-twitter" d="M37.836,38.211a15.225,15.225,0,0,1-2.651.894,8.266,8.266,0,0,0,2.182-3.475h0a.433.433,0,0,0-.634-.5h0A15.3,15.3,0,0,1,32.68,36.8a1.033,1.033,0,0,1-.253.031,1.074,1.074,0,0,1-.71-.271,8.289,8.289,0,0,0-5.484-2.07,8.862,8.862,0,0,0-2.626.405,8.03,8.03,0,0,0-5.412,5.786,8.842,8.842,0,0,0-.2,3.052.3.3,0,0,1-.075.233.307.307,0,0,1-.229.1h-.029A21.734,21.734,0,0,1,2.727,36.088h0a.433.433,0,0,0-.71.056h0A8.3,8.3,0,0,0,3.365,46.219a7.428,7.428,0,0,1-1.891-.732h0a.433.433,0,0,0-.644.374h0a8.3,8.3,0,0,0,4.841,7.646l-.177,0a7.459,7.459,0,0,1-1.4-.133h0a.433.433,0,0,0-.494.558h0a8.307,8.307,0,0,0,6.562,5.65,15.3,15.3,0,0,1-8.567,2.6H.641a.635.635,0,0,0-.62.479.657.657,0,0,0,.314.726,22.75,22.75,0,0,0,11.432,3.082A23.062,23.062,0,0,0,21.536,64.4a21.573,21.573,0,0,0,7.148-5.356,23.483,23.483,0,0,0,4.377-7.33,23.156,23.156,0,0,0,1.488-8.023v-.126a1.41,1.41,0,0,1,.528-1.1,16.383,16.383,0,0,0,3.3-3.617h0a.433.433,0,0,0-.536-.637Z" transform="translate(0 -34.491)" fill="#8e1597"/>
</svg>
