<svg xmlns="http://www.w3.org/2000/svg" width="23.111" height="23.111" viewBox="0 0 23.111 23.111">
  <g id="noun_egg_beater_557387" data-name="noun_egg beater_557387" transform="translate(0 -1.699)">
    <g id="Groupe_6" data-name="Groupe 6" transform="translate(0 0)">
      <g id="Groupe_5" data-name="Groupe 5">
        <g id="Groupe_4" data-name="Groupe 4" transform="translate(0 18.693) rotate(-45)">
          <path id="Tracé_1" data-name="Tracé 1" d="M6.248,7.69C2.268,7.69.961,6.614.961,4.326S2.267.961,6.248.961A21.752,21.752,0,0,1,16.09,3.753l.5-.819A22.681,22.681,0,0,0,6.248,0C1.773,0,0,1.461,0,4.326S1.774,8.652,6.248,8.652A22.672,22.672,0,0,0,16.594,5.717l-.5-.819A21.743,21.743,0,0,1,6.248,7.69Z" transform="translate(0 0)" fill="#552a58" fill-rule="evenodd"/>
          <path id="Tracé_2" data-name="Tracé 2" d="M4.942,2.884c-3,0-3.98-.387-3.98-.961S1.937.961,4.942.961A83.237,83.237,0,0,1,16.274,1.9L16.41.946A84.118,84.118,0,0,0,4.942,0C1.449,0,0,.575,0,1.923S1.449,3.845,4.942,3.845A84.118,84.118,0,0,0,16.41,2.9l-.136-.952A83.237,83.237,0,0,1,4.942,2.884Z" transform="translate(0 2.403)" fill="#552a58" fill-rule="evenodd"/>
          <path id="Tracé_3" data-name="Tracé 3" d="M.957,0h7.7a1.923,1.923,0,0,1,0,3.845H.957A.959.959,0,0,1,0,2.875V.97A.963.963,0,0,1,.957,0Zm0,2.875v.009h7.7a.963.963,0,0,0,.954-.961A.953.953,0,0,0,8.659.961H.961V2.875Z" transform="translate(15.861 2.403)" fill="#552a58" fill-rule="evenodd"/>
        </g>
      </g>
    </g>
  </g>
</svg>
